<mxfile host="app.diagrams.net" modified="2022-09-20T06:38:33.626Z" agent="5.0 (Macintosh; Intel Mac OS X 10_15_7) AppleWebKit/605.1.15 (KHTML, like Gecko) Version/16.0 Safari/605.1.15" etag="qYkPMt_DhGCcwPTeOdhc" version="20.3.3" type="github">
  <diagram id="JqeLopu-yI3yRozryUVZ" name="Page-1">
    <mxGraphModel dx="752" dy="544" grid="1" gridSize="10" guides="1" tooltips="1" connect="1" arrows="1" fold="1" page="1" pageScale="1" pageWidth="850" pageHeight="1100" math="0" shadow="0">
      <root>
        <mxCell id="0" />
        <mxCell id="1" parent="0" />
        <mxCell id="L5BnOR3yHX3l2qgV8oPt-2" value="hs_compile" style="html=1;shadow=0;dashed=0;align=center;verticalAlign=middle;shape=mxgraph.arrows2.arrow;dy=0.6;dx=40;notch=0;" parent="1" vertex="1">
          <mxGeometry x="90" y="70" width="100" height="70" as="geometry" />
        </mxCell>
        <mxCell id="L5BnOR3yHX3l2qgV8oPt-3" value="hs_compile_multi" style="html=1;shadow=0;dashed=0;align=center;verticalAlign=middle;shape=mxgraph.arrows2.arrow;dy=0.6;dx=40;notch=0;" parent="1" vertex="1">
          <mxGeometry x="107.5" y="910" width="100" height="70" as="geometry" />
        </mxCell>
        <mxCell id="L5BnOR3yHX3l2qgV8oPt-5" value="单模" style="text;html=1;strokeColor=none;fillColor=none;align=center;verticalAlign=middle;whiteSpace=wrap;rounded=0;" parent="1" vertex="1">
          <mxGeometry x="30" y="90" width="60" height="30" as="geometry" />
        </mxCell>
        <mxCell id="L5BnOR3yHX3l2qgV8oPt-6" value="多模" style="text;html=1;strokeColor=none;fillColor=none;align=center;verticalAlign=middle;whiteSpace=wrap;rounded=0;" parent="1" vertex="1">
          <mxGeometry x="47.5" y="930" width="60" height="30" as="geometry" />
        </mxCell>
        <mxCell id="L5BnOR3yHX3l2qgV8oPt-7" value="hs_compile_ext_multi" style="html=1;shadow=0;dashed=0;align=center;verticalAlign=middle;shape=mxgraph.arrows2.arrow;dy=0.6;dx=40;notch=0;" parent="1" vertex="1">
          <mxGeometry x="112.5" y="1080" width="150" height="70" as="geometry" />
        </mxCell>
        <mxCell id="L5BnOR3yHX3l2qgV8oPt-8" value="添加新规则" style="text;html=1;strokeColor=none;fillColor=none;align=center;verticalAlign=middle;whiteSpace=wrap;rounded=0;" parent="1" vertex="1">
          <mxGeometry x="52.5" y="1100" width="60" height="30" as="geometry" />
        </mxCell>
        <mxCell id="zbaMzbH7OL8G5D6aqOrP-4" value="" style="edgeStyle=orthogonalEdgeStyle;rounded=0;orthogonalLoop=1;jettySize=auto;html=1;" parent="1" source="zbaMzbH7OL8G5D6aqOrP-1" target="zbaMzbH7OL8G5D6aqOrP-3" edge="1">
          <mxGeometry relative="1" as="geometry" />
        </mxCell>
        <mxCell id="zbaMzbH7OL8G5D6aqOrP-7" value="hs_compile input param" style="swimlane;fontStyle=0;childLayout=stackLayout;horizontal=1;startSize=30;horizontalStack=0;resizeParent=1;resizeParentMax=0;resizeLast=0;collapsible=1;marginBottom=0;" parent="1" vertex="1">
          <mxGeometry x="30" y="145" width="250" height="250" as="geometry">
            <mxRectangle x="30" y="145" width="100" height="30" as="alternateBounds" />
          </mxGeometry>
        </mxCell>
        <mxCell id="zbaMzbH7OL8G5D6aqOrP-8" value="expression //所要存的匹配式子" style="text;strokeColor=none;fillColor=none;align=left;verticalAlign=middle;spacingLeft=4;spacingRight=4;overflow=hidden;points=[[0,0.5],[1,0.5]];portConstraint=eastwest;rotatable=0;" parent="zbaMzbH7OL8G5D6aqOrP-7" vertex="1">
          <mxGeometry y="30" width="250" height="30" as="geometry" />
        </mxCell>
        <mxCell id="zbaMzbH7OL8G5D6aqOrP-9" value="flags //" style="text;strokeColor=none;fillColor=none;align=left;verticalAlign=middle;spacingLeft=4;spacingRight=4;overflow=hidden;points=[[0,0.5],[1,0.5]];portConstraint=eastwest;rotatable=0;" parent="zbaMzbH7OL8G5D6aqOrP-7" vertex="1">
          <mxGeometry y="60" width="250" height="30" as="geometry" />
        </mxCell>
        <mxCell id="zbaMzbH7OL8G5D6aqOrP-10" value="mode //所需的编译和扫描的模式-编译和&#xa;            扫描模式要一致" style="text;strokeColor=none;fillColor=none;align=left;verticalAlign=middle;spacingLeft=4;spacingRight=4;overflow=hidden;points=[[0,0.5],[1,0.5]];portConstraint=eastwest;rotatable=0;" parent="zbaMzbH7OL8G5D6aqOrP-7" vertex="1">
          <mxGeometry y="90" width="250" height="70" as="geometry" />
        </mxCell>
        <mxCell id="zbaMzbH7OL8G5D6aqOrP-15" value="platform //所需要编译的平台" style="text;strokeColor=none;fillColor=none;align=left;verticalAlign=middle;spacingLeft=4;spacingRight=4;overflow=hidden;points=[[0,0.5],[1,0.5]];portConstraint=eastwest;rotatable=0;" parent="zbaMzbH7OL8G5D6aqOrP-7" vertex="1">
          <mxGeometry y="160" width="250" height="30" as="geometry" />
        </mxCell>
        <mxCell id="8LTWd78tMosmoWqgN_8M-5" value="db    //编译后所存的数据库" style="text;strokeColor=none;fillColor=none;align=left;verticalAlign=middle;spacingLeft=4;spacingRight=4;overflow=hidden;points=[[0,0.5],[1,0.5]];portConstraint=eastwest;rotatable=0;" vertex="1" parent="zbaMzbH7OL8G5D6aqOrP-7">
          <mxGeometry y="190" width="250" height="30" as="geometry" />
        </mxCell>
        <mxCell id="8LTWd78tMosmoWqgN_8M-6" value="error //编译中所出现的warning和error" style="text;strokeColor=none;fillColor=none;align=left;verticalAlign=middle;spacingLeft=4;spacingRight=4;overflow=hidden;points=[[0,0.5],[1,0.5]];portConstraint=eastwest;rotatable=0;" vertex="1" parent="zbaMzbH7OL8G5D6aqOrP-7">
          <mxGeometry y="220" width="250" height="30" as="geometry" />
        </mxCell>
        <mxCell id="zbaMzbH7OL8G5D6aqOrP-1" value="start" style="ellipse;whiteSpace=wrap;html=1;" parent="1" vertex="1">
          <mxGeometry x="220" y="75" width="110" height="60" as="geometry" />
        </mxCell>
        <mxCell id="zbaMzbH7OL8G5D6aqOrP-23" value="" style="edgeStyle=orthogonalEdgeStyle;rounded=0;orthogonalLoop=1;jettySize=auto;html=1;" parent="1" source="zbaMzbH7OL8G5D6aqOrP-3" target="zbaMzbH7OL8G5D6aqOrP-22" edge="1">
          <mxGeometry relative="1" as="geometry" />
        </mxCell>
        <mxCell id="zbaMzbH7OL8G5D6aqOrP-24" value="false" style="edgeLabel;html=1;align=center;verticalAlign=middle;resizable=0;points=[];" parent="zbaMzbH7OL8G5D6aqOrP-23" vertex="1" connectable="0">
          <mxGeometry x="-0.1484" y="-3" relative="1" as="geometry">
            <mxPoint as="offset" />
          </mxGeometry>
        </mxCell>
        <mxCell id="zbaMzbH7OL8G5D6aqOrP-26" value="" style="edgeStyle=orthogonalEdgeStyle;rounded=0;orthogonalLoop=1;jettySize=auto;html=1;" parent="1" source="zbaMzbH7OL8G5D6aqOrP-3" target="zbaMzbH7OL8G5D6aqOrP-25" edge="1">
          <mxGeometry relative="1" as="geometry" />
        </mxCell>
        <mxCell id="zbaMzbH7OL8G5D6aqOrP-27" value="true" style="edgeLabel;html=1;align=center;verticalAlign=middle;resizable=0;points=[];" parent="zbaMzbH7OL8G5D6aqOrP-26" vertex="1" connectable="0">
          <mxGeometry x="-0.28" y="1" relative="1" as="geometry">
            <mxPoint as="offset" />
          </mxGeometry>
        </mxCell>
        <mxCell id="zbaMzbH7OL8G5D6aqOrP-3" value="expression &amp;nbsp;== nullptr" style="rhombus;whiteSpace=wrap;html=1;" parent="1" vertex="1">
          <mxGeometry x="400" y="67.5" width="115" height="75" as="geometry" />
        </mxCell>
        <mxCell id="8LTWd78tMosmoWqgN_8M-3" style="edgeStyle=orthogonalEdgeStyle;rounded=0;orthogonalLoop=1;jettySize=auto;html=1;exitX=1;exitY=0.5;exitDx=0;exitDy=0;entryX=1;entryY=0.5;entryDx=0;entryDy=0;" edge="1" parent="1" source="zbaMzbH7OL8G5D6aqOrP-22" target="8LTWd78tMosmoWqgN_8M-1">
          <mxGeometry relative="1" as="geometry" />
        </mxCell>
        <mxCell id="zbaMzbH7OL8G5D6aqOrP-22" value="hs_compile_multi_int" style="whiteSpace=wrap;html=1;" parent="1" vertex="1">
          <mxGeometry x="592.5" y="75" width="120" height="60" as="geometry" />
        </mxCell>
        <mxCell id="8LTWd78tMosmoWqgN_8M-2" value="" style="edgeStyle=orthogonalEdgeStyle;rounded=0;orthogonalLoop=1;jettySize=auto;html=1;" edge="1" parent="1" source="zbaMzbH7OL8G5D6aqOrP-25" target="8LTWd78tMosmoWqgN_8M-1">
          <mxGeometry relative="1" as="geometry" />
        </mxCell>
        <mxCell id="zbaMzbH7OL8G5D6aqOrP-25" value="return error" style="whiteSpace=wrap;html=1;" parent="1" vertex="1">
          <mxGeometry x="397.5" y="200" width="120" height="60" as="geometry" />
        </mxCell>
        <mxCell id="8LTWd78tMosmoWqgN_8M-1" value="end" style="ellipse;whiteSpace=wrap;html=1;" vertex="1" parent="1">
          <mxGeometry x="580" y="200" width="120" height="60" as="geometry" />
        </mxCell>
        <mxCell id="8LTWd78tMosmoWqgN_8M-4" value="hs_compile_multi_int" style="html=1;shadow=0;dashed=0;align=center;verticalAlign=middle;shape=mxgraph.arrows2.arrow;dy=0.6;dx=40;notch=0;" vertex="1" parent="1">
          <mxGeometry x="60" y="420" width="162" height="70" as="geometry" />
        </mxCell>
        <mxCell id="8LTWd78tMosmoWqgN_8M-7" value="hs_compile_multi_int input param" style="swimlane;fontStyle=0;childLayout=stackLayout;horizontal=1;startSize=30;horizontalStack=0;resizeParent=1;resizeParentMax=0;resizeLast=0;collapsible=1;marginBottom=0;" vertex="1" parent="1">
          <mxGeometry x="30" y="510" width="250" height="330" as="geometry" />
        </mxCell>
        <mxCell id="8LTWd78tMosmoWqgN_8M-8" value="expression //所要存的匹配式子" style="text;strokeColor=none;fillColor=none;align=left;verticalAlign=middle;spacingLeft=4;spacingRight=4;overflow=hidden;points=[[0,0.5],[1,0.5]];portConstraint=eastwest;rotatable=0;" vertex="1" parent="8LTWd78tMosmoWqgN_8M-7">
          <mxGeometry y="30" width="250" height="30" as="geometry" />
        </mxCell>
        <mxCell id="8LTWd78tMosmoWqgN_8M-9" value="flags" style="text;strokeColor=none;fillColor=none;align=left;verticalAlign=middle;spacingLeft=4;spacingRight=4;overflow=hidden;points=[[0,0.5],[1,0.5]];portConstraint=eastwest;rotatable=0;" vertex="1" parent="8LTWd78tMosmoWqgN_8M-7">
          <mxGeometry y="60" width="250" height="30" as="geometry" />
        </mxCell>
        <mxCell id="8LTWd78tMosmoWqgN_8M-10" value="ids //单模的时候为0" style="text;strokeColor=none;fillColor=none;align=left;verticalAlign=middle;spacingLeft=4;spacingRight=4;overflow=hidden;points=[[0,0.5],[1,0.5]];portConstraint=eastwest;rotatable=0;" vertex="1" parent="8LTWd78tMosmoWqgN_8M-7">
          <mxGeometry y="90" width="250" height="30" as="geometry" />
        </mxCell>
        <mxCell id="8LTWd78tMosmoWqgN_8M-11" value="ext //在单模和多模下位空，用不到" style="text;strokeColor=none;fillColor=none;align=left;verticalAlign=middle;spacingLeft=4;spacingRight=4;overflow=hidden;points=[[0,0.5],[1,0.5]];portConstraint=eastwest;rotatable=0;" vertex="1" parent="8LTWd78tMosmoWqgN_8M-7">
          <mxGeometry y="120" width="250" height="30" as="geometry" />
        </mxCell>
        <mxCell id="8LTWd78tMosmoWqgN_8M-12" value="elements //匹配式子的个数" style="text;strokeColor=none;fillColor=none;align=left;verticalAlign=middle;spacingLeft=4;spacingRight=4;overflow=hidden;points=[[0,0.5],[1,0.5]];portConstraint=eastwest;rotatable=0;" vertex="1" parent="8LTWd78tMosmoWqgN_8M-7">
          <mxGeometry y="150" width="250" height="30" as="geometry" />
        </mxCell>
        <mxCell id="8LTWd78tMosmoWqgN_8M-14" value="mode //所需的编译和扫描的模式-编译和&#xa;            扫描模式要一致" style="text;strokeColor=none;fillColor=none;align=left;verticalAlign=middle;spacingLeft=4;spacingRight=4;overflow=hidden;points=[[0,0.5],[1,0.5]];portConstraint=eastwest;rotatable=0;" vertex="1" parent="8LTWd78tMosmoWqgN_8M-7">
          <mxGeometry y="180" width="250" height="30" as="geometry" />
        </mxCell>
        <mxCell id="8LTWd78tMosmoWqgN_8M-15" value="platform //所需要编译的平台" style="text;strokeColor=none;fillColor=none;align=left;verticalAlign=middle;spacingLeft=4;spacingRight=4;overflow=hidden;points=[[0,0.5],[1,0.5]];portConstraint=eastwest;rotatable=0;" vertex="1" parent="8LTWd78tMosmoWqgN_8M-7">
          <mxGeometry y="210" width="250" height="30" as="geometry" />
        </mxCell>
        <mxCell id="8LTWd78tMosmoWqgN_8M-16" value="db    //编译后所存的数据库" style="text;strokeColor=none;fillColor=none;align=left;verticalAlign=middle;spacingLeft=4;spacingRight=4;overflow=hidden;points=[[0,0.5],[1,0.5]];portConstraint=eastwest;rotatable=0;" vertex="1" parent="8LTWd78tMosmoWqgN_8M-7">
          <mxGeometry y="240" width="250" height="30" as="geometry" />
        </mxCell>
        <mxCell id="8LTWd78tMosmoWqgN_8M-17" value="comp_error //编译时所遇到的问题" style="text;strokeColor=none;fillColor=none;align=left;verticalAlign=middle;spacingLeft=4;spacingRight=4;overflow=hidden;points=[[0,0.5],[1,0.5]];portConstraint=eastwest;rotatable=0;" vertex="1" parent="8LTWd78tMosmoWqgN_8M-7">
          <mxGeometry y="270" width="250" height="30" as="geometry" />
        </mxCell>
        <mxCell id="8LTWd78tMosmoWqgN_8M-18" value="g" style="text;strokeColor=none;fillColor=none;align=left;verticalAlign=middle;spacingLeft=4;spacingRight=4;overflow=hidden;points=[[0,0.5],[1,0.5]];portConstraint=eastwest;rotatable=0;" vertex="1" parent="8LTWd78tMosmoWqgN_8M-7">
          <mxGeometry y="300" width="250" height="30" as="geometry" />
        </mxCell>
        <mxCell id="8LTWd78tMosmoWqgN_8M-21" value="" style="edgeStyle=orthogonalEdgeStyle;rounded=0;orthogonalLoop=1;jettySize=auto;html=1;" edge="1" parent="1" source="8LTWd78tMosmoWqgN_8M-19" target="8LTWd78tMosmoWqgN_8M-20">
          <mxGeometry relative="1" as="geometry" />
        </mxCell>
        <mxCell id="8LTWd78tMosmoWqgN_8M-19" value="start" style="ellipse;whiteSpace=wrap;html=1;" vertex="1" parent="1">
          <mxGeometry x="240" y="425" width="107.5" height="60" as="geometry" />
        </mxCell>
        <mxCell id="8LTWd78tMosmoWqgN_8M-24" value="" style="edgeStyle=orthogonalEdgeStyle;rounded=0;orthogonalLoop=1;jettySize=auto;html=1;" edge="1" parent="1" source="8LTWd78tMosmoWqgN_8M-20" target="8LTWd78tMosmoWqgN_8M-23">
          <mxGeometry relative="1" as="geometry" />
        </mxCell>
        <mxCell id="8LTWd78tMosmoWqgN_8M-25" value="true" style="edgeLabel;html=1;align=center;verticalAlign=middle;resizable=0;points=[];" vertex="1" connectable="0" parent="8LTWd78tMosmoWqgN_8M-24">
          <mxGeometry x="-0.2343" y="2" relative="1" as="geometry">
            <mxPoint y="1" as="offset" />
          </mxGeometry>
        </mxCell>
        <mxCell id="8LTWd78tMosmoWqgN_8M-27" value="" style="edgeStyle=orthogonalEdgeStyle;rounded=0;orthogonalLoop=1;jettySize=auto;html=1;" edge="1" parent="1" source="8LTWd78tMosmoWqgN_8M-20" target="8LTWd78tMosmoWqgN_8M-26">
          <mxGeometry relative="1" as="geometry" />
        </mxCell>
        <mxCell id="8LTWd78tMosmoWqgN_8M-20" value="many judgements" style="rhombus;whiteSpace=wrap;html=1;" vertex="1" parent="1">
          <mxGeometry x="388.13" y="417.5" width="138.75" height="75" as="geometry" />
        </mxCell>
        <mxCell id="8LTWd78tMosmoWqgN_8M-23" value="return error" style="whiteSpace=wrap;html=1;" vertex="1" parent="1">
          <mxGeometry x="397.505" y="540" width="120" height="60" as="geometry" />
        </mxCell>
        <mxCell id="8LTWd78tMosmoWqgN_8M-26" value="" style="whiteSpace=wrap;html=1;" vertex="1" parent="1">
          <mxGeometry x="579.995" y="425" width="120" height="60" as="geometry" />
        </mxCell>
      </root>
    </mxGraphModel>
  </diagram>
</mxfile>
